<?xml version="1.0" encoding="UTF-8"?>
<!DOCTYPE svg PUBLIC "-//W3C//DTD SVG 1.1//EN" "http://www.w3.org/Graphics/SVG/1.1/DTD/svg11.dtd">
<svg xmlns="http://www.w3.org/2000/svg" version="1.1" width="512px" height="512px" style="shape-rendering:geometricPrecision; text-rendering:geometricPrecision; image-rendering:optimizeQuality; fill-rule:evenodd; clip-rule:evenodd" xmlns:xlink="http://www.w3.org/1999/xlink">
<g><path style="opacity:0.909" fill="#fea600" d="M 299.5,6.5 C 304.179,6.33418 308.845,6.50085 313.5,7C 320.224,9.07578 322.724,13.5758 321,20.5C 319.878,22.6238 318.378,24.4571 316.5,26C 227.698,28.4609 159.865,66.9609 113,141.5C 72.3333,217.833 72.3333,294.167 113,370.5C 148.637,429.768 200.471,466.601 268.5,481C 284.419,483.469 300.419,485.136 316.5,486C 323.145,492.094 323.145,498.094 316.5,504C 221.032,503.86 147.865,463.693 97,383.5C 58.5653,314.717 52.232,243.05 78,168.5C 110.364,88.4726 168.198,36.9726 251.5,14C 267.478,10.4098 283.478,7.90977 299.5,6.5 Z"/></g>
<g><path style="opacity:0.892" fill="#01fcfe" d="M 300.5,43.5 C 306.176,43.3339 311.843,43.5006 317.5,44C 324.698,48.3935 325.365,53.7268 319.5,60C 243.702,61.9626 185.868,94.796 146,158.5C 117.407,211.103 112.74,265.769 132,322.5C 158.714,389.807 207.548,431.307 278.5,447C 292.528,448.85 306.528,450.516 320.5,452C 323.803,455.795 324.303,459.962 322,464.5C 321.097,465.701 319.931,466.535 318.5,467C 237.379,466.125 175.212,431.625 132,363.5C 92.1309,290.138 92.7975,217.138 134,144.5C 173.297,84.422 228.797,50.7553 300.5,43.5 Z"/></g>
<g><path style="opacity:0.999" fill="#f8a90e" d="M 318.5,70.5 C 322.479,72.4492 326.813,73.4492 331.5,73.5C 332.167,73.5 332.833,73.5 333.5,73.5C 337.22,76.3253 341.554,77.6587 346.5,77.5C 346.833,77.5 347.167,77.5 347.5,77.5C 352.207,80.8445 357.541,83.1779 363.5,84.5C 367.315,87.5778 371.649,89.9112 376.5,91.5C 376.833,91.5 377.167,91.5 377.5,91.5C 378.035,93.4456 379.368,94.4456 381.5,94.5C 381.833,94.5 382.167,94.5 382.5,94.5C 382.787,97.4841 384.454,98.8174 387.5,98.5C 388.539,100.531 390.205,101.864 392.5,102.5C 393.035,104.446 394.368,105.446 396.5,105.5C 397.693,108.938 400.026,111.271 403.5,112.5C 406.101,116.771 409.434,120.437 413.5,123.5C 414.08,125.749 415.413,127.415 417.5,128.5C 421.662,132.001 424.662,136.335 426.5,141.5C 426.427,143.027 427.094,144.027 428.5,144.5C 432.282,150.401 435.282,156.734 437.5,163.5C 437.528,166.916 438.528,169.916 440.5,172.5C 442.277,175.505 443.277,178.838 443.5,182.5C 443.335,185.518 443.502,188.518 444,191.5C 444.2,193.32 445.034,194.653 446.5,195.5C 447.2,199.798 447.533,204.131 447.5,208.5C 447.5,209.833 447.5,211.167 447.5,212.5C 443.5,212.5 439.5,212.5 435.5,212.5C 430.649,155.589 402.316,115.422 350.5,92C 342.278,88.9802 333.945,86.4802 325.5,84.5C 322.851,82.8906 319.851,82.0572 316.5,82C 310.175,81.5005 303.842,81.3338 297.5,81.5C 294.475,80.9668 293.142,79.1335 293.5,76C 293.167,73.3333 294.167,71.3333 296.5,70C 303.856,69.3642 311.189,69.5309 318.5,70.5 Z"/></g>
<g><path style="opacity:0.212" fill="#b3c358" d="M 318.5,70.5 C 323.071,70.9769 327.404,71.9769 331.5,73.5C 326.813,73.4492 322.479,72.4492 318.5,70.5 Z"/></g>
<g><path style="opacity:0.604" fill="#c4bd47" d="M 333.5,73.5 C 338.072,74.3876 342.405,75.7209 346.5,77.5C 341.554,77.6587 337.22,76.3253 333.5,73.5 Z"/></g>
<g><path style="opacity:0.601" fill="#d1b633" d="M 297.5,81.5 C 303.842,81.3338 310.175,81.5005 316.5,82C 319.851,82.0572 322.851,82.8906 325.5,84.5C 316.05,83.2646 306.717,82.2646 297.5,81.5 Z"/></g>
<g><path style="opacity:0.51" fill="#b9c154" d="M 347.5,77.5 C 353.242,79.074 358.575,81.4073 363.5,84.5C 357.541,83.1779 352.207,80.8445 347.5,77.5 Z"/></g>
<g><path style="opacity:0.373" fill="#b1c55c" d="M 363.5,84.5 C 368.288,86.0594 372.621,88.3927 376.5,91.5C 371.649,89.9112 367.315,87.5778 363.5,84.5 Z"/></g>
<g><path style="opacity:0.948" fill="#fea600" d="M 276.5,91.5 C 309.768,87.4819 339.768,95.3152 366.5,115C 391.752,138.559 404.085,167.725 403.5,202.5C 398.515,271.98 363.515,319.146 298.5,344C 291.61,346.306 284.61,348.139 277.5,349.5C 277.955,370.887 277.455,392.22 276,413.5C 271.282,418.739 265.449,420.572 258.5,419C 251.126,417.903 245.293,414.403 241,408.5C 240.964,323.446 240.297,238.446 239,153.5C 240.543,151.622 242.376,150.122 244.5,149C 258.355,146.018 268.855,150.518 276,162.5C 277.144,213.133 277.977,263.8 278.5,314.5C 334.093,298.324 363.76,261.324 367.5,203.5C 364.338,150.498 336.338,124.998 283.5,127C 230.483,132.35 200.983,161.516 195,214.5C 192.558,235.986 196.225,256.319 206,275.5C 207.141,277.609 208.641,279.442 210.5,281C 215.585,280.918 218.252,283.418 218.5,288.5C 216.889,299.554 212.223,309.054 204.5,317C 200.667,319.753 196.667,320.086 192.5,318C 176.751,302.677 166.585,284.177 162,262.5C 153.947,222.534 159.947,184.867 180,149.5C 203.21,115.47 235.377,96.1366 276.5,91.5 Z"/></g>
<g><path style="opacity:0.62" fill="#a8cb70" d="M 377.5,91.5 C 379.23,92.0256 380.564,93.0256 381.5,94.5C 379.368,94.4456 378.035,93.4456 377.5,91.5 Z"/></g>
<g><path style="opacity:1" fill="#c8c155" d="M 382.5,94.5 C 384.389,95.604 386.055,96.9373 387.5,98.5C 384.454,98.8174 382.787,97.4841 382.5,94.5 Z"/></g>
<g><path style="opacity:0.737" fill="#a9ca6d" d="M 387.5,98.5 C 389.754,99.1237 391.421,100.457 392.5,102.5C 390.205,101.864 388.539,100.531 387.5,98.5 Z"/></g>
<g><path style="opacity:0.349" fill="#a7d07d" d="M 392.5,102.5 C 394.23,103.026 395.564,104.026 396.5,105.5C 394.368,105.446 393.035,104.446 392.5,102.5 Z"/></g>
<g><path style="opacity:0.686" fill="#c0bd46" d="M 396.5,105.5 C 399.167,107.5 401.5,109.833 403.5,112.5C 400.026,111.271 397.693,108.938 396.5,105.5 Z"/></g>
<g><path style="opacity:0.792" fill="#b5c354" d="M 403.5,112.5 C 407.566,115.563 410.899,119.229 413.5,123.5C 409.434,120.437 406.101,116.771 403.5,112.5 Z"/></g>
<g><path style="opacity:0.494" fill="#b0c358" d="M 413.5,123.5 C 415.587,124.585 416.92,126.251 417.5,128.5C 415.413,127.415 414.08,125.749 413.5,123.5 Z"/></g>
<g><path style="opacity:0.169" fill="#a8ce76" d="M 426.5,141.5 C 427.906,141.973 428.573,142.973 428.5,144.5C 427.094,144.027 426.427,143.027 426.5,141.5 Z"/></g>
<g><path style="opacity:0.694" fill="#c2bf4c" d="M 437.5,163.5 C 439.31,166.145 440.31,169.145 440.5,172.5C 438.528,169.916 437.528,166.916 437.5,163.5 Z"/></g>
<g><path style="opacity:0.965" fill="#d2b83b" d="M 443.5,182.5 C 445.118,186.575 446.118,190.908 446.5,195.5C 445.034,194.653 444.2,193.32 444,191.5C 443.502,188.518 443.335,185.518 443.5,182.5 Z"/></g>
<g><path style="opacity:1" fill="#90cd73" d="M 447.5,208.5 C 448.451,209.919 448.784,211.585 448.5,213.5C 444.167,213.5 439.833,213.5 435.5,213.5C 435.5,213.167 435.5,212.833 435.5,212.5C 439.5,212.5 443.5,212.5 447.5,212.5C 447.5,211.167 447.5,209.833 447.5,208.5 Z"/></g>
<g><path style="opacity:0.858" fill="#01fcfe" d="M 435.5,213.5 C 439.833,213.5 444.167,213.5 448.5,213.5C 448.126,267.084 426.46,309.584 383.5,341C 359.564,356.812 333.23,365.312 304.5,366.5C 294.805,367.564 291.805,363.731 295.5,355C 356.905,352.742 400.405,323.908 426,268.5C 432.84,250.795 436.006,232.462 435.5,213.5 Z"/></g>
</svg>
